<svg xmlns="http://www.w3.org/2000/svg" viewBox="0 0 128 128"><defs><style>.cls-1{fill:#d0423c;}.cls-2{fill:#fff;}</style></defs><title>blogposts_icon</title><g id="BG"><rect class="cls-1" width="128" height="128" rx="20" ry="20"/></g><g id="Logo"><path class="cls-2" d="M97.39,47.71l.32-.3,4.35-4.35a6.6,6.6,0,0,0,0-9.33L94,25.64a6.6,6.6,0,0,0-9.33,0L80.3,30l-.3.32Z" transform="translate(0 0)"/><polygon class="cls-2" points="35.66 92.04 44.26 100.64 34.13 102.17 24 103.7 25.53 93.57 27.06 83.44 35.66 92.04"/><polygon class="cls-2" points="82.63 37.61 36.6 83.64 34.11 81.15 80.14 35.12 77.65 32.63 29.13 81.15 46.55 98.57 95.07 50.05 82.63 37.61"/></g></svg>