<?xml version="1.0"?>
<svg xmlns="http://www.w3.org/2000/svg" xmlns:xlink="http://www.w3.org/1999/xlink" version="1.1" id="Capa_1" x="0px" y="0px" viewBox="0 0 490.667 490.667" style="enable-background:new 0 0 490.667 490.667;" xml:space="preserve" width="512px" height="512px" class=""><g><g>
	<g>
		<path d="M458.667,341.333h-53.333V288c0-29.397-23.936-53.333-53.333-53.333h-96v-85.333h53.333    c5.888,0,10.667-4.779,10.667-10.667v-128C320,4.779,315.221,0,309.333,0h-128c-5.888,0-10.667,4.779-10.667,10.667v128    c0,5.888,4.779,10.667,10.667,10.667h53.333v85.333h-96c-29.397,0-53.333,23.936-53.333,53.333v53.333H32    c-5.888,0-10.667,4.779-10.667,10.667v128c0,5.888,4.779,10.667,10.667,10.667h128c5.888,0,10.667-4.779,10.667-10.667V352    c0-5.888-4.779-10.667-10.667-10.667h-53.333V288c0-17.643,14.357-32,32-32H352c17.643,0,32,14.357,32,32v53.333h-53.333    c-5.888,0-10.667,4.779-10.667,10.667v128c0,5.888,4.779,10.667,10.667,10.667h128c5.888,0,10.667-4.779,10.667-10.667V352    C469.333,346.112,464.555,341.333,458.667,341.333z" data-original="#000000" class="active-path" data-old_color="#000000" fill="#FFFFFF"/>
	</g>
</g></g> </svg>
