<svg xmlns="http://www.w3.org/2000/svg" viewBox="0 0 128 128"><defs><style>.cls-1{fill:#cf413b;}.cls-2{fill:#fff;}</style></defs><title>icon-rounded</title><g id="BG"><rect class="cls-1" width="128" height="128" rx="20" ry="20"/></g><g id="Logo"><circle class="cls-2" cx="48.20087" cy="32.36256" r="7.02437"/><circle class="cls-2" cx="79.205" cy="32.36256" r="7.02437"/><path class="cls-2" d="M52.36024,70.84051a7.89169,7.89169,0,0,1,2.78281-2.213,4.48507,4.48507,0,0,0,.47-.81489,11.57851,11.57851,0,0,1,2.11741-18.27814c.05665-.23749.09887-.45984.15919-.701,1.93776-7.751-5.81328-7.751-9.68879-7.751-2.79144,0-7.57635.01632-9.32038,2.91279A11.47727,11.47727,0,0,1,39.602,54.11764a62.88727,62.88727,0,0,1,.75849,7.31946c1.36544,1.93078,1.70677,4.39485,1.0001,7.3391,1.713,2.206,5.37827,3.31042,6.84023,3.31042a10.59832,10.59832,0,0,0,4.131-1.20436C52.34226,70.86878,52.34983,70.85387,52.36024,70.84051Z" transform="translate(0 0)"/><path class="cls-2" d="M87.04533,61.4371a62.894,62.894,0,0,1,.75846-7.31946,11.47745,11.47745,0,0,1,.72159-10.12238c-1.744-2.89647-6.52894-2.91279-9.32038-2.91279-3.87552,0-11.62655,0-9.68879,7.751.06032.24116.10254.46351.15919.701a11.57851,11.57851,0,0,1,2.11741,18.27814,4.48507,4.48507,0,0,0,.47.81489,7.89169,7.89169,0,0,1,2.78281,2.213c.01041.01336.018.02827.02839.04175a10.59832,10.59832,0,0,0,4.131,1.20436c1.462,0,5.12718-1.10442,6.84023-3.31042C85.33856,65.832,85.67989,63.36789,87.04533,61.4371Z" transform="translate(0 0)"/><g id="user"><path class="cls-2" d="M28.82328,60.46007c-3.87551,0-11.62654,0-9.68878,7.751a66.7466,66.7466,0,0,1,1.93776,17.43983c0,3.87551,5.81327,5.81327,7.751,5.81327s7.751-1.93776,7.751-5.81327a66.7466,66.7466,0,0,1,1.93776-17.43983C40.44984,60.46007,32.69879,60.46007,28.82328,60.46007Z" transform="translate(0 0)"/><circle class="cls-2" cx="28.82328" cy="49.80239" r="8.71991"/></g><g id="user-2" data-name="user"><path class="cls-2" d="M63.70294,70.14885c-3.87551,0-11.62656,0-9.68878,7.751A66.74644,66.74644,0,0,1,55.95191,95.3397c0,3.87554,5.81327,5.81329,7.751,5.81329s7.751-1.93776,7.751-5.81329A66.74565,66.74565,0,0,1,73.39174,77.8999C75.3295,70.14885,67.57845,70.14885,63.70294,70.14885Z" transform="translate(0 0)"/><circle class="cls-2" cx="63.70294" cy="59.49119" r="8.71991"/></g><g id="user-3" data-name="user"><path class="cls-2" d="M98.5826,60.46007c-3.87551,0-11.62656,0-9.68881,7.751a66.7466,66.7466,0,0,1,1.93776,17.43983c0,3.87551,5.81329,5.81327,7.751,5.81327s7.751-1.93776,7.751-5.81327a66.74659,66.74659,0,0,1,1.93776-17.43983C110.20914,60.46007,102.45811,60.46007,98.5826,60.46007Z" transform="translate(0 0)"/><circle class="cls-2" cx="98.58259" cy="49.80239" r="8.71991"/></g></g></svg>