<svg xmlns="http://www.w3.org/2000/svg" viewBox="0 0 128 128"><defs><style>.cls-1{fill:#e23945;}.cls-2{fill:#fff;}</style></defs><title>reactions_icon</title><g id="BG"><rect class="cls-1" width="128" height="128" rx="20" ry="20"/></g><g id="Logo"><path class="cls-2" d="M63.7,38.5C62,32,53.57,28.17,47,28.17A23.05,23.05,0,0,0,23.7,51.5c0,25,23.77,31.67,36.67,46.67a3.19,3.19,0,0,0,.4.45,4.19,4.19,0,0,0,5.9,0,3,3,0,0,0,.37-.45C80,83.14,103.7,76.6,103.7,51.5A23.05,23.05,0,0,0,80.37,28.17C73.84,28.17,65.37,32,63.7,38.5Zm17.75,4.67a3.34,3.34,0,0,1-2.75-3.28A3.39,3.39,0,0,1,82,36.5c2.65,0,5.87,1.88,8.57,4.55s4.77,6.38,4.77,8.78a3.33,3.33,0,0,1-6.62.58A10.14,10.14,0,0,0,81.45,43.17Z" transform="translate(0 0)"/></g></svg>