<?xml version="1.0"?>
<svg xmlns="http://www.w3.org/2000/svg" xmlns:xlink="http://www.w3.org/1999/xlink" version="1.1" id="Capa_1" x="0px" y="0px" width="512px" height="512px" viewBox="0 0 448.754 448.755" style="enable-background:new 0 0 448.754 448.755;" xml:space="preserve" class=""><g><g>
	<path d="M431.579,16.109C421.19,5.721,407.379,0,392.688,0s-28.504,5.721-38.891,16.108L289.524,80.38H14.318   c-7.319,0-13.251,5.935-13.251,13.252v242.479c0,7.32,5.932,13.252,13.251,13.252h202.673v86.139   c0,5.359,3.228,10.192,8.182,12.244c1.639,0.678,3.359,1.009,5.066,1.009c3.447,0,6.838-1.348,9.373-3.883l96.172-95.509h56.975   c7.32,0,13.252-5.932,13.252-13.252V119.46l25.568-25.568c10.389-10.388,16.109-24.2,16.109-38.891   C447.688,40.308,441.967,26.497,431.579,16.109z M244.059,212.914c-2.473,0.507-5.031-0.26-6.814-2.044   c-1.783-1.784-2.552-4.343-2.043-6.814l8.178-39.837l40.518,40.517L244.059,212.914z M298.555,191.986l-42.428-42.427l95.191-95.19   l42.426,42.427L298.555,191.986z M413.569,76.972l-6.119,6.12l-42.428-42.427l6.119-6.119c11.715-11.716,30.711-11.716,42.428,0   C425.284,46.261,425.284,65.256,413.569,76.972z" data-original="#000000" class="active-path" data-old_color="#FCFBFB" fill="#FDFDFD"/>
</g></g> </svg>
