<?xml version="1.0" encoding="iso-8859-1"?>
<!-- Generator: Adobe Illustrator 18.0.0, SVG Export Plug-In . SVG Version: 6.00 Build 0)  -->
<!DOCTYPE svg PUBLIC "-//W3C//DTD SVG 1.1//EN" "http://www.w3.org/Graphics/SVG/1.1/DTD/svg11.dtd">
<svg xmlns="http://www.w3.org/2000/svg" xmlns:xlink="http://www.w3.org/1999/xlink" version="1.1" id="Capa_1" x="0px" y="0px" viewBox="0 0 59 59" style="enable-background:new 0 0 59 59;" xml:space="preserve" width="512px" height="512px">
<g>
	<path d="M58.188,39.364l-1.444-0.278c-0.677-0.13-1.21-0.573-1.462-1.215c-0.253-0.643-0.163-1.33,0.245-1.886l0.907-1.236   c0.292-0.398,0.25-0.95-0.1-1.299l-1.959-1.958c-0.339-0.338-0.87-0.389-1.269-0.12l-1.216,0.824   c-0.331,0.224-0.711,0.342-1.099,0.342c-0.844,0-1.787-0.575-1.956-1.675l-0.233-1.515c-0.075-0.488-0.495-0.848-0.988-0.848h-2.77   c-0.479,0-0.892,0.34-0.982,0.811l-0.358,1.865c-0.201,1.051-1.13,1.602-1.942,1.602c-0.389,0-0.768-0.118-1.099-0.342   l-1.572-1.065c-0.395-0.267-0.929-0.217-1.268,0.121l-1.959,1.958c-0.35,0.349-0.392,0.901-0.1,1.299l0.907,1.236   c0.408,0.557,0.498,1.244,0.245,1.887c-0.252,0.642-0.785,1.085-1.462,1.215l-1.444,0.278C33.34,39.455,33,39.867,33,40.346v2.769   c0,0.494,0.36,0.913,0.848,0.988l1.515,0.233c0.683,0.105,1.232,0.528,1.508,1.16c0.276,0.632,0.213,1.323-0.175,1.895   l-0.824,1.217c-0.269,0.397-0.218,0.929,0.121,1.268l1.958,1.958c0.349,0.35,0.901,0.391,1.298,0.1l1.237-0.907   c0.343-0.251,0.742-0.384,1.156-0.384c0.813,0,1.742,0.55,1.944,1.602l0.277,1.444c0.091,0.471,0.503,0.812,0.982,0.812h2.77   c0.493,0,0.913-0.36,0.988-0.848l0.164-1.066c0.169-1.1,1.113-1.675,1.958-1.675c0.414,0,0.813,0.133,1.156,0.384l0.869,0.638   c0.398,0.291,0.948,0.25,1.299-0.099l1.958-1.958c0.339-0.339,0.39-0.871,0.121-1.268l-0.824-1.217   c-0.388-0.572-0.451-1.262-0.175-1.895c0.275-0.632,0.825-1.055,1.508-1.16l1.515-0.233C58.64,44.028,59,43.609,59,43.115v-2.769   C59,39.867,58.66,39.455,58.188,39.364z M57,42.257l-0.667,0.103c-1.354,0.208-2.488,1.082-3.036,2.336   c-0.548,1.255-0.416,2.682,0.352,3.816l0.361,0.534l-0.768,0.767l-0.178-0.13c-0.688-0.505-1.497-0.771-2.339-0.771   c-1.979,0-3.635,1.417-3.935,3.371L46.758,52.5h-1.086l-0.121-0.633c-0.359-1.868-2.004-3.224-3.909-3.224   c-0.843,0-1.651,0.267-2.339,0.771l-0.545,0.399l-0.768-0.768l0.361-0.534c0.768-1.134,0.899-2.561,0.352-3.816   c-0.548-1.255-1.683-2.128-3.036-2.336L35,42.257v-1.085l0.633-0.122c1.345-0.259,2.446-1.174,2.947-2.449   c0.5-1.274,0.315-2.695-0.494-3.8l-0.399-0.544l0.768-0.768l0.889,0.602c0.662,0.449,1.43,0.687,2.22,0.687   c1.905,0,3.548-1.356,3.907-3.224l0.202-1.054h1.086l0.103,0.667c0.301,1.953,1.955,3.371,3.934,3.37   c0.789,0,1.557-0.237,2.22-0.687l0.532-0.361l0.768,0.768l-0.399,0.544c-0.81,1.104-0.994,2.525-0.494,3.8   c0.501,1.275,1.603,2.19,2.947,2.449L57,41.172V42.257z" fill="#FFFFFF"/>
	<path d="M46,36.5c-2.757,0-5,2.243-5,5s2.243,5,5,5s5-2.243,5-5S48.757,36.5,46,36.5z M46,44.5c-1.654,0-3-1.346-3-3s1.346-3,3-3   s3,1.346,3,3S47.654,44.5,46,44.5z" fill="#FFFFFF"/>
	<path d="M0,5.732v37.962c5.233-4.049,16.986-13.204,22.449-17.944L0,5.732z" fill="#FFFFFF"/>
	<path d="M37.658,27.388c0.286-0.092,0.604-0.067,0.864,0.11l2.338,1.583l0.053-0.314l0.472-2.455   c0.091-0.471,0.503-0.811,0.982-0.811h7.821c0.493,0,0.913,0.36,0.988,0.848l0.378,2.452l1.922-1.302   c0.396-0.269,0.929-0.217,1.268,0.12L58,30.872V5.732L35.587,25.717L37.658,27.388z" fill="#FFFFFF"/>
	<path d="M31.299,26.861L56.376,4.5H1.624l25.076,22.36C27.968,27.993,30.031,27.993,31.299,26.861z" fill="#FFFFFF"/>
	<path d="M31.623,34.447c-0.292-0.398-0.25-0.95,0.1-1.299l4.418-4.416l-2.066-1.667l-1.444,1.287c-1,0.893-2.315,1.34-3.63,1.34   s-2.63-0.447-3.631-1.34l-1.415-1.261c-5.521,4.814-17.851,14.41-23.007,18.398C0.966,45.49,0.981,45.5,1,45.5h29v-7.632   c0-0.479,0.34-0.892,0.812-0.982l2.28-0.438L31.623,34.447z" fill="#FFFFFF"/>
</g>
<g>
</g>
<g>
</g>
<g>
</g>
<g>
</g>
<g>
</g>
<g>
</g>
<g>
</g>
<g>
</g>
<g>
</g>
<g>
</g>
<g>
</g>
<g>
</g>
<g>
</g>
<g>
</g>
<g>
</g>
</svg>
